<svg width="640" height="560" viewBox="0 0 640 560" fill="none" xmlns="http://www.w3.org/2000/svg">
<g filter="url(#filter0_d_34508_90)">
<path d="M156.153 416.726C144.693 410.475 96.0742 394.753 30.5734 374.509C7.58098 367.402 6.22461 364.161 5.41954 349.536C3.15507 308.399 10.3446 274.201 20.0685 262.378C26.5399 254.51 43.399 245.772 69.9339 237.098C88.359 231.075 123.777 232.023 171.078 235.954C202.091 238.531 216.105 245.709 222.143 248.069C245.558 257.22 227.218 316.174 216.2 334.304C199.861 361.187 167.897 375.022 152.767 392.212C144.215 401.928 130.423 402.488 113.335 416.418C109.912 419.209 106.745 416.758 105.403 417.776C104.061 418.794 104.061 422.44 105.624 425.1C107.187 427.76 110.312 429.323 111.662 432.472C119.231 450.132 100.904 471.375 112.167 500.277C118.481 516.48 131.875 530.285 146.618 538.777C168.846 551.581 201.772 550.869 244.4 550.916C266.385 550.941 276.026 513.174 289.23 494.673C299.708 479.993 299.798 462.551 299.538 453.885C298.785 428.827 269.333 397.847 257.486 387.034C247.389 377.818 227.313 372.054 211.188 370.681C207.757 370.388 204.108 370.949 203.532 366.521C199.971 339.156 211.906 322.615 215.845 307.35C222.916 279.944 242.94 271.597 248.212 252.362C252.333 237.33 263.461 225.251 274.495 216.025C288.073 204.671 298.188 188.44 304.502 166.365C312.744 137.548 322.908 122.142 337.091 106.081C354.261 86.637 368.148 73.1764 381.037 61.8584C394.241 50.2639 412.852 50.5404 428.393 39.767C441.295 30.8224 453.894 23.1688 468.645 17.644C487.613 10.5398 511.794 10.0355 528.874 8.67009C548.69 7.08586 560.728 18.9068 574.146 26.7994C589.306 35.7173 605.432 49.4039 616.79 59.1512C627.068 67.9722 609.726 86.215 605.527 99.1352C601.42 111.772 587.658 118.859 574.777 123.105C559.715 128.07 531.02 132.592 509 128.669C495.792 126.317 492.41 108.441 486.617 94.4944C481.395 81.9237 471.352 69.5458 467.919 53.7211C463.132 31.6559 471.305 5.80507 476.814 2.90848C488.285 -3.12318 538.787 6.3102 570.46 14.9526C587.636 19.6393 598.076 28.9146 606.79 40.4615C611.595 46.8296 619.149 48.9303 622.851 48.9303C633.895 48.9303 597.161 54.171 571.904 55.2444C563.057 55.6204 594.382 53.6659 605.203 47.3755C610.881 44.075 621.754 47.3518 631.225 49.175C634.859 49.8745 634.445 54.6446 632.882 57.8253C626.424 70.9712 620.775 83.058 614.477 94.9285C608.264 106.639 600.318 116.775 589.497 125.457C577.936 134.733 541.06 132.592 518.992 128.401C506.278 125.986 495.046 130.477 489.521 133.618C480.595 138.693 477.13 149.893 471.352 162.008C464.584 176.201 456.135 186.735 448.992 198.322C440.92 211.416 420.334 216.191 402.473 234.604C391.658 245.754 382.418 254.075 366.957 265.669C351.877 276.977 350.848 293.001 347.691 307.492C346.288 313.93 340.903 318.321 334.281 329.063C323.933 345.85 327.707 367.192 321.661 380.112C315.584 391.959 309.333 403.53 297.999 410.128C295.094 411.454 291.969 412.496 280.856 416.726" stroke="black" stroke-width="2" stroke-linecap="round" shape-rendering="crispEdges"/>
</g>
<defs>
<filter id="filter0_d_34508_90" x="0" y="0" width="639.031" height="559.916" filterUnits="userSpaceOnUse" color-interpolation-filters="sRGB">
<feFlood flood-opacity="0" result="BackgroundImageFix"/>
<feColorMatrix in="SourceAlpha" type="matrix" values="0 0 0 0 0 0 0 0 0 0 0 0 0 0 0 0 0 0 127 0" result="hardAlpha"/>
<feOffset dy="4"/>
<feGaussianBlur stdDeviation="2"/>
<feComposite in2="hardAlpha" operator="out"/>
<feColorMatrix type="matrix" values="0 0 0 0 0 0 0 0 0 0 0 0 0 0 0 0 0 0 0.25 0"/>
<feBlend mode="normal" in2="BackgroundImageFix" result="effect1_dropShadow_34508_90"/>
<feBlend mode="normal" in="SourceGraphic" in2="effect1_dropShadow_34508_90" result="shape"/>
</filter>
</defs>
</svg>
